<?xml version="1.0" standalone="no"?>
<!DOCTYPE svg PUBLIC "-//W3C//DTD SVG 20010904//EN"
 "http://www.w3.org/TR/2001/REC-SVG-20010904/DTD/svg10.dtd">
<svg version="1.0" xmlns="http://www.w3.org/2000/svg"
 width="830.000000pt" height="830.000000pt" viewBox="0 0 830.000000 830.000000"
 preserveAspectRatio="xMidYMid meet">
<metadata>
Created by potrace 1.11, written by Peter Selinger 2001-2013
</metadata>
<g transform="translate(0.000000,830.000000) scale(0.100000,-0.100000)"
fill="#000000" stroke="none">
<path d="M4247 8004 c-2 -3 -24 -7 -48 -9 -67 -8 -93 -12 -109 -18 -8 -3 -22
-6 -30 -6 -61 -4 -135 -10 -135 -11 0 -2 -34 -7 -100 -15 -52 -6 -102 -13
-145 -21 -19 -4 -51 -8 -70 -9 -19 -2 -35 -4 -35 -5 0 -2 -13 -4 -30 -6 -16
-1 -55 -6 -85 -9 -30 -4 -72 -7 -92 -8 -21 -1 -38 -5 -38 -8 0 -3 -15 -5 -32
-4 -18 0 -38 -2 -43 -7 -6 -4 -20 -7 -30 -8 -11 0 -36 -2 -55 -5 -19 -3 -57
-7 -85 -10 -27 -3 -63 -8 -80 -10 -75 -10 -152 -18 -177 -19 -15 0 -24 -4 -21
-9 3 -5 -10 -7 -29 -6 -18 2 -39 0 -45 -4 -7 -4 -27 -8 -45 -7 -59 0 -113 -5
-118 -11 -3 -4 -36 -10 -75 -14 -38 -4 -90 -9 -115 -12 -25 -3 -66 -6 -92 -7
-25 0 -44 -4 -41 -8 2 -5 -6 -8 -19 -7 -13 0 -39 -3 -58 -6 -19 -3 -60 -7 -90
-10 -30 -2 -66 -7 -80 -9 -40 -8 -102 -16 -150 -21 -25 -2 -45 -5 -45 -6 0 0
-13 -3 -30 -4 -16 -2 -57 -7 -90 -10 -33 -4 -73 -9 -90 -10 -16 -2 -32 -4 -35
-6 -6 -3 -36 -7 -100 -14 -25 -2 -67 -7 -95 -10 -27 -3 -68 -8 -90 -10 -22 -2
-40 -4 -40 -5 0 -3 -41 -10 -95 -16 -30 -3 -71 -7 -90 -10 -19 -2 -51 -5 -70
-7 -19 -2 -40 -5 -45 -9 -10 -6 -46 -9 -127 -11 -27 -1 -48 -4 -48 -7 0 -3
-10 -6 -22 -7 -13 0 -43 -4 -68 -8 -25 -3 -56 -8 -70 -10 -14 -2 -25 -4 -25
-5 0 -2 -37 -11 -52 -12 -7 -1 -13 -6 -13 -11 0 -5 -7 -6 -16 -3 -8 3 -12 2
-9 -4 3 -6 -1 -10 -9 -10 -13 0 -67 -50 -119 -110 -10 -11 -23 -18 -29 -14 -7
5 -8 3 -3 -5 4 -8 -1 -24 -12 -40 -11 -14 -23 -36 -27 -49 -4 -12 -12 -22 -17
-22 -6 0 -7 -4 -4 -10 3 -5 3 -16 -1 -22 -11 -18 -12 -48 -2 -54 4 -3 8 -27 8
-54 0 -27 5 -52 10 -55 6 -4 10 -14 9 -23 -4 -31 13 -217 23 -252 5 -19 12
-60 14 -90 2 -30 9 -84 15 -120 16 -92 17 -101 28 -237 6 -66 17 -141 25 -165
8 -23 17 -74 21 -113 13 -145 57 -491 65 -505 4 -8 8 -53 9 -99 1 -46 7 -93
13 -104 6 -12 11 -55 12 -96 1 -42 4 -79 9 -82 7 -5 15 -61 33 -224 3 -27 10
-79 15 -115 15 -92 31 -235 34 -304 4 -74 25 -186 35 -186 4 0 8 -30 8 -67 0
-38 5 -97 12 -133 6 -36 14 -92 16 -125 9 -102 24 -226 39 -310 8 -44 19 -120
25 -170 6 -49 13 -103 16 -120 3 -16 7 -61 8 -100 2 -38 8 -91 14 -116 16 -65
22 -112 29 -209 2 -47 9 -87 13 -90 5 -3 11 -44 15 -90 3 -47 16 -152 29 -235
13 -82 25 -172 26 -200 2 -61 6 -101 13 -112 3 -4 8 -35 11 -68 11 -106 37
-299 42 -318 3 -9 7 -39 9 -65 5 -75 15 -162 26 -232 6 -36 13 -90 15 -120 2
-30 9 -80 15 -110 7 -30 13 -80 15 -110 4 -66 8 -95 29 -223 10 -54 15 -107
12 -117 -3 -11 -1 -20 5 -20 6 0 8 -17 6 -40 -2 -22 0 -40 5 -40 5 0 7 -6 4
-14 -3 -7 0 -19 6 -26 9 -10 9 -11 -3 -5 -9 6 -6 -4 8 -26 12 -18 27 -33 33
-31 6 1 8 -2 5 -7 -8 -12 78 -100 129 -132 22 -14 61 -34 87 -43 49 -19 58
-18 378 29 49 7 316 46 345 50 63 8 1079 153 1125 160 43 6 169 23 310 40 74
10 169 24 210 33 41 9 91 16 110 15 36 0 207 -26 450 -68 74 -13 155 -26 180
-30 25 -4 133 -22 240 -40 107 -18 213 -36 235 -40 71 -10 148 -23 240 -40 50
-9 104 -19 120 -21 177 -29 675 -112 885 -149 663 -114 628 -109 690 -90 140
44 278 174 299 281 5 27 19 112 31 189 12 77 32 208 45 290 33 209 37 236 40
271 1 17 5 35 7 40 3 5 9 36 13 69 4 33 9 71 12 85 2 14 6 39 8 55 2 17 9 57
14 90 6 33 25 146 41 250 17 105 33 201 35 215 5 29 11 68 24 160 6 36 12 76
15 90 6 34 19 120 21 145 3 23 13 91 20 125 7 38 17 102 21 139 2 19 8 57 13
85 10 51 13 67 27 181 8 62 10 73 14 78 4 5 10 43 14 88 2 26 6 51 8 55 3 5 5
21 4 37 -1 15 2 27 7 27 5 0 8 12 7 27 -1 16 -1 30 0 33 1 3 4 19 6 35 3 17 9
53 14 80 8 45 14 83 24 162 2 15 7 39 10 53 3 14 9 48 12 75 3 28 7 61 9 75 1
14 7 50 13 80 6 30 11 62 11 70 1 8 10 69 20 134 11 66 18 123 15 128 -3 4 -1
8 4 8 5 0 9 12 10 28 0 15 1 29 2 32 6 17 20 106 25 160 2 19 4 35 5 35 3 0
14 70 24 155 1 9 5 20 8 25 3 6 5 27 4 48 0 20 1 37 4 37 3 0 6 8 6 18 1 20
13 101 19 122 4 14 14 78 20 125 2 11 10 63 19 117 9 53 16 100 15 105 -1 4 1
19 5 33 4 14 9 45 11 70 2 25 4 45 5 45 3 0 11 42 14 80 2 22 6 47 9 55 3 8
10 51 17 95 17 116 19 134 30 194 5 29 7 57 5 61 -3 5 -1 11 4 14 5 3 8 22 7
41 -1 19 2 35 6 35 4 0 8 10 7 23 0 22 6 73 14 112 3 11 8 40 11 65 4 25 11
65 16 90 5 25 12 65 15 90 8 70 16 120 25 168 4 25 7 55 5 68 -1 13 1 24 5 24
4 0 7 6 7 13 1 6 4 39 8 72 8 68 10 163 3 185 -8 27 -32 75 -51 103 -10 15
-16 27 -13 27 3 0 -17 23 -44 50 -28 29 -48 56 -44 62 4 7 3 8 -5 4 -6 -4 -14
0 -17 8 -3 9 -10 14 -14 11 -5 -3 -14 0 -22 7 -7 7 -22 15 -33 16 -11 2 -24 7
-30 12 -9 7 -46 14 -125 24 -14 2 -25 4 -25 6 0 1 -13 3 -30 5 -16 2 -43 6
-60 9 -33 7 -91 15 -115 17 -8 0 -22 3 -30 6 -8 3 -24 7 -35 9 -11 1 -33 5
-50 9 -16 3 -46 8 -65 10 -19 2 -46 7 -60 10 -14 3 -38 8 -55 10 -16 2 -43 6
-60 9 -33 7 -61 12 -120 20 -39 6 -62 10 -107 22 -13 3 -40 5 -60 5 -21 0 -40
4 -42 8 -3 4 -21 8 -42 9 -20 2 -42 6 -48 9 -6 4 -22 8 -36 9 -14 2 -45 5 -70
9 -25 4 -55 6 -68 6 -13 -1 -21 3 -17 8 3 6 -6 8 -20 5 -14 -2 -25 -1 -25 3 0
8 -24 11 -87 13 -18 0 -33 4 -33 9 0 4 -12 8 -27 8 -16 1 -44 4 -63 7 -19 4
-44 8 -55 10 -11 2 -20 4 -20 6 0 1 -13 3 -30 5 -33 4 -76 11 -115 20 -36 9
-70 15 -105 19 -16 2 -41 7 -55 10 -13 3 -39 7 -57 8 -18 1 -33 5 -33 8 0 5
-29 8 -92 10 -16 1 -28 6 -28 11 0 6 -4 8 -9 5 -5 -3 -33 -1 -62 5 -30 6 -59
12 -66 13 -7 1 -15 5 -19 8 -3 4 -12 4 -20 1 -8 -3 -37 1 -66 8 -29 7 -57 14
-63 14 -5 1 -12 3 -15 4 -3 1 -21 4 -40 7 -70 9 -86 11 -150 23 -36 7 -69 15
-74 18 -5 3 -25 7 -45 9 -38 2 -86 10 -86 13 0 1 -13 4 -30 6 -16 2 -44 6 -61
9 -18 3 -49 8 -70 11 -22 3 -52 9 -69 13 -16 5 -36 7 -42 5 -7 -3 -13 -1 -13
4 0 4 -12 9 -27 9 -16 1 -44 4 -63 8 -19 4 -48 9 -64 12 -38 6 -48 13 -40 26
5 7 2 8 -6 3 -7 -4 -15 -3 -19 2 -12 19 -134 74 -175 79 -22 3 -46 7 -53 9 -6
2 -13 2 -16 -1z"/>
</g>
</svg>
